#!OML:ASF F:\VICON\USERDATA\INSTALL\rory3\rory3.ASF
:FULLY-SPECIFIED
:DEGREES
28
root -0.05120511774984354 17.901156642038075 13.208741722352272 -2.1083448045274142 -3.0778136007928696 1.7633714406688077
lfemur 11.131062354898127 -4.05200643035879 -25.6021226824511
ltibia 32.039318703987234
lfoot -4.226759400234293 -8.029490458056808
ltoes 1.394769335545194
rfemur -27.642532126225486 2.282191113659821 20.760168338602163
rtibia 30.834080125473335
rfoot -8.33025187716099 -0.6280078810691387
rtoes -1.905326608466964
lowerback -1.0 -1.0233583911007174 -2.8470524877942887
upperback 0.35734521209062997 -1.6121180498108894 1.5144737020175563
thorax -5.191916354084858 -0.6765783656139384 3.1445585518341375
lowerneck -16.445418586851545 -2.469796965900384 -2.0093822435845805
upperneck 22.798841504554797 -2.9428344418761627 -0.16571162529282346
head 9.957828247643242 -1.5404137149412258 0.04378581902053551
lclavicle 4.2112181208646856e-16 -7.886378354850903e-16
lhumerus -23.809985926225924 2.4692385406740915 78.28848219249866
lradius 31.138895508998857
lwrist 6.689462794323888
lhand -29.993751931977382 17.79617693262564
lfingers nan
lthumb -2.8678391796194727 48.72814604878076
rclavicle 3.1244191403526863e-16 -8.705388441986488e-16
rhumerus -36.64215328095173 -26.55375163342113 -74.33772169633187
rradius 26.928971887714393
rwrist 1.5515437632488913
rhand -17.640266303078796 -1.0
rfingers nan
rthumb 8.547241067683474 -7.4779119526048845
29
root -0.03721027332433069 17.898814889498603 14.25203546429935 -1.9583667027563663 -3.4650327015889384 0.5856585015925353
lfemur 10.120469600496637 -3.4996069672558177 -23.886078370545444
ltibia 38.21571558718329
lfoot -4.730001448221293 -5.600498964872658
ltoes 0.8879962863703428
rfemur -26.796847706295537 2.7094727605839797 21.90519923995683
rtibia 27.532719310405806
rfoot -10.353283434533912 -4.002643043309153
rtoes -3.2241403785752794
lowerback -1.0 -1.0769632775945803 -2.0308300796345056
upperback 0.32143244514889846 -1.5385120694228291 1.7390036078714357
thorax -5.340191090097776 -0.6680061761987801 2.951932963065115
lowerneck -16.47112852379031 -2.4846425008218374 -1.9324996286492
upperneck 22.92880033057147 -2.9860178010038894 -0.26251742196632777
head 10.005244974581462 -1.5634105716954512 -0.03229175544499732
lclavicle 4.133684663819301e-16 -7.944650613015781e-16
lhumerus -24.5898067457341 1.6990979407090245 78.640991256282
lradius 30.352392641452717
lwrist 6.683459290231654
lhand -29.980668455255763 18.05689991976975
lfingers nan
lthumb -2.9549028178150993 48.8343423111513
rclavicle 3.2220568804552867e-16 -8.634725405940414e-16
rhumerus -36.36452685205372 -27.667051694503726 -73.29455132768338
rradius 26.771333731086735
rwrist 3.437010825184072
rhand -17.664871007732845 -1.0
rfingers nan
rthumb 8.467174590243358 -7.740786137393471
30
root -0.015598489560441131 17.898690389638528 15.297374772092978 -2.0161004544017 -3.477370756080262 0.2466547322007917
lfemur 7.671754601557879 -2.6638439637504554 -21.554705594776483
ltibia 44.37062318648235
lfoot -5.046215010430368 -2.3490558944404207
ltoes -1.5673168638045367
rfemur -24.763554182601304 2.6573405422564744 22.52797817860744
rtibia 25.47294867610791
rfoot -13.240407939927062 -7.015877168538987
rtoes -5.225181639684905
lowerback -1.0 -1.1236504645557504 -1.5640995975510723
upperback 0.3157472767879387 -1.4569288970610588 1.8895610708803976
thorax -5.3997418062691676 -0.6113058723004041 2.9065460934701117
lowerneck -16.555488622931005 -2.508020643382295 -1.927299766310985
upperneck 22.914242978707758 -3.024185692913296 -0.2533932920560634
head 10.048317909479934 -1.5769313982062731 -0.04345026983383175
lclavicle 4.092553458276458e-16 -7.979075551029504e-16
lhumerus -25.32631237812865 0.06284523096961525 78.96778011494104
lradius 29.464561423483914
lwrist 6.586024983711144
lhand -29.940336455171273 18.148618904036802
lfingers nan
lthumb -2.935568950580171 49.08477325322043
rclavicle 3.1811200099117167e-16 -8.666344351146593e-16
rhumerus -35.87780827769819 -28.49180552628408 -72.68364120594504
rradius 26.527962291106377
rwrist 5.2062013037343595
rhand -17.698828570733717 -1.0
rfingers nan
rthumb 8.456093199101135 -7.875732184820931
31
root 0.01903571778821128 17.896980138617696 16.50645252606053 -2.2124408514047604 -3.1597049818968794 -0.36204206508217496
lfemur 4.162951843505727 -1.882426747430726 -19.653335320585555
ltibia 50.09840495269084
lfoot -4.746864964097506 -0.2873601156662624
ltoes -3.6239575366885415
rfemur -21.928352203873924 2.4784056304811637 23.48079865653817
rtibia 24.080719936403675
rfoot -16.86026347548924 -8.888436928730112
rtoes -8.025968254510325
lowerback -1.0 -1.1005776520004988 -0.8299366468372065
upperback 0.27712462953013717 -1.30373094617583 1.9967099981133978
thorax -5.410836642808415 -0.5859454791653713 2.712442576880472
lowerneck -16.552071567430833 -2.510224674367225 -1.8154669005925697
upperneck 22.84661463387088 -3.0419153536239425 -0.24213665527472106
head 10.005500016834102 -1.5877181985550748 -0.03861963678982096
lclavicle 4.2263879910656046e-16 -7.891703226321755e-16
lhumerus -26.007341922083206 -1.35014494230255 79.35916505695077
lradius 27.749908011604383
lwrist 6.595540240209459
lhand -29.83522288666337 17.603768673664064
lfingers nan
lthumb -2.8063644242286387 48.68452166987469
rclavicle 3.1767603349894244e-16 -8.678849675994395e-16
rhumerus -34.89521810859067 -29.09115941439812 -72.55863505695692
rradius 26.447416959740302
rwrist 5.651215289436842
rhand -17.717913022517443 -1.0
rfingers nan
rthumb 8.476325976056449 -7.938813486961011
